
<svg id="visual" viewBox="0 0 500 40" width="500" height="40" xmlns="http://www.w3.org/2000/svg" xmlns:xlink="http://www.w3.org/1999/xlink" version="1.1"><rect x="0" y="0" width="1280" height="60" fill="#001220"></rect><path d="M0 6L10.2 6.3C20.3 6.7 40.7 7.3 61 7.7C81.3 8 101.7 8 122 14.7C142.3 21.3 162.7 34.7 183 40.2C203.3 45.7 223.7 43.3 244 40.8C264.3 38.3 284.7 35.7 305 33.8C325.3 32 345.7 31 366 27.3C386.3 23.7 406.7 17.3 427 13.3C447.3 9.3 467.7 7.7 488 7.8C508.3 8 528.7 10 549 16.8C569.3 23.7 589.7 35.3 609.8 35C630 34.7 650 22.3 670.2 17C690.3 11.7 710.7 13.3 731 19.5C751.3 25.7 771.7 36.3 792 38.3C812.3 40.3 832.7 33.7 853 29.8C873.3 26 893.7 25 914 27C934.3 29 954.7 34 975 37.7C995.3 41.3 1015.7 43.7 1036 42.2C1056.3 40.7 1076.7 35.3 1097 35.8C1117.3 36.3 1137.7 42.7 1158 43.7C1178.3 44.7 1198.7 40.3 1219 34.5C1239.3 28.7 1259.7 21.3 1269.8 17.7L1280 14L1280 61L1269.8 61C1259.7 61 1239.3 61 1219 61C1198.7 61 1178.3 61 1158 61C1137.7 61 1117.3 61 1097 61C1076.7 61 1056.3 61 1036 61C1015.7 61 995.3 61 975 61C954.7 61 934.3 61 914 61C893.7 61 873.3 61 853 61C832.7 61 812.3 61 792 61C771.7 61 751.3 61 731 61C710.7 61 690.3 61 670.2 61C650 61 630 61 609.8 61C589.7 61 569.3 61 549 61C528.7 61 508.3 61 488 61C467.7 61 447.3 61 427 61C406.7 61 386.3 61 366 61C345.7 61 325.3 61 305 61C284.7 61 264.3 61 244 61C223.7 61 203.3 61 183 61C162.7 61 142.3 61 122 61C101.7 61 81.3 61 61 61C40.7 61 20.3 61 10.2 61L0 61Z" fill="#001122"></path><path d="M0 27L10.2 27.3C20.3 27.7 40.7 28.3 61 26.5C81.3 24.7 101.7 20.3 122 20C142.3 19.7 162.7 23.3 183 23.2C203.3 23 223.7 19 244 21.5C264.3 24 284.7 33 305 35.7C325.3 38.3 345.7 34.7 366 32.7C386.3 30.7 406.7 30.3 427 32.7C447.3 35 467.7 40 488 43.5C508.3 47 528.7 49 549 45.8C569.3 42.7 589.7 34.3 609.8 31.3C630 28.3 650 30.7 670.2 31.2C690.3 31.7 710.7 30.3 731 27C751.3 23.7 771.7 18.3 792 18.5C812.3 18.7 832.7 24.3 853 25.2C873.3 26 893.7 22 914 20C934.3 18 954.7 18 975 21C995.3 24 1015.7 30 1036 31C1056.3 32 1076.7 28 1097 29.2C1117.3 30.3 1137.7 36.7 1158 40.5C1178.3 44.3 1198.7 45.7 1219 47.2C1239.3 48.7 1259.7 50.3 1269.8 51.2L1280 52L1280 61L1269.8 61C1259.7 61 1239.3 61 1219 61C1198.7 61 1178.3 61 1158 61C1137.7 61 1117.3 61 1097 61C1076.7 61 1056.3 61 1036 61C1015.7 61 995.3 61 975 61C954.7 61 934.3 61 914 61C893.7 61 873.3 61 853 61C832.7 61 812.3 61 792 61C771.7 61 751.3 61 731 61C710.7 61 690.3 61 670.2 61C650 61 630 61 609.8 61C589.7 61 569.3 61 549 61C528.7 61 508.3 61 488 61C467.7 61 447.3 61 427 61C406.7 61 386.3 61 366 61C345.7 61 325.3 61 305 61C284.7 61 264.3 61 244 61C223.7 61 203.3 61 183 61C162.7 61 142.3 61 122 61C101.7 61 81.3 61 61 61C40.7 61 20.3 61 10.2 61L0 61Z" fill="#132e39"></path><path d="M0 30L10.2 33.3C20.3 36.7 40.7 43.3 61 43.5C81.3 43.7 101.7 37.3 122 35.2C142.3 33 162.7 35 183 34.8C203.3 34.7 223.7 32.3 244 35.2C264.3 38 284.7 46 305 47.8C325.3 49.7 345.7 45.3 366 41.3C386.3 37.3 406.7 33.7 427 35.3C447.3 37 467.7 44 488 42.7C508.3 41.3 528.7 31.7 549 29.2C569.3 26.7 589.7 31.3 609.8 32.2C630 33 650 30 670.2 27.7C690.3 25.3 710.7 23.7 731 27.5C751.3 31.3 771.7 40.7 792 43.3C812.3 46 832.7 42 853 41.8C873.3 41.7 893.7 45.3 914 47.5C934.3 49.7 954.7 50.3 975 46.7C995.3 43 1015.7 35 1036 30.7C1056.3 26.3 1076.7 25.7 1097 25.2C1117.3 24.7 1137.7 24.3 1158 26.7C1178.3 29 1198.7 34 1219 36.7C1239.3 39.3 1259.7 39.7 1269.8 39.8L1280 40L1280 61L1269.8 61C1259.7 61 1239.3 61 1219 61C1198.7 61 1178.3 61 1158 61C1137.7 61 1117.3 61 1097 61C1076.7 61 1056.3 61 1036 61C1015.7 61 995.3 61 975 61C954.7 61 934.3 61 914 61C893.7 61 873.3 61 853 61C832.7 61 812.3 61 792 61C771.7 61 751.3 61 731 61C710.7 61 690.3 61 670.2 61C650 61 630 61 609.8 61C589.7 61 569.3 61 549 61C528.7 61 508.3 61 488 61C467.7 61 447.3 61 427 61C406.7 61 386.3 61 366 61C345.7 61 325.3 61 305 61C284.7 61 264.3 61 244 61C223.7 61 203.3 61 183 61C162.7 61 142.3 61 122 61C101.7 61 81.3 61 61 61C40.7 61 20.3 61 10.2 61L0 61Z" fill="#324c4d"></path><path d="M0 46L10.2 45C20.3 44 40.7 42 61 40.7C81.3 39.3 101.7 38.7 122 39C142.3 39.3 162.7 40.7 183 43.5C203.3 46.3 223.7 50.7 244 49.8C264.3 49 284.7 43 305 39.3C325.3 35.7 345.7 34.3 366 35.2C386.3 36 406.7 39 427 39.3C447.3 39.7 467.7 37.3 488 39C508.3 40.7 528.7 46.3 549 48C569.3 49.7 589.7 47.3 609.8 45C630 42.7 650 40.3 670.2 39.7C690.3 39 710.7 40 731 41.3C751.3 42.7 771.7 44.3 792 46.5C812.3 48.7 832.7 51.3 853 52.8C873.3 54.3 893.7 54.7 914 52.5C934.3 50.3 954.7 45.7 975 41.8C995.3 38 1015.7 35 1036 34.7C1056.3 34.3 1076.7 36.7 1097 37.3C1117.3 38 1137.7 37 1158 35.5C1178.3 34 1198.7 32 1219 32.8C1239.3 33.7 1259.7 37.3 1269.8 39.2L1280 41L1280 61L1269.8 61C1259.7 61 1239.3 61 1219 61C1198.7 61 1178.3 61 1158 61C1137.7 61 1117.3 61 1097 61C1076.7 61 1056.3 61 1036 61C1015.7 61 995.3 61 975 61C954.7 61 934.3 61 914 61C893.7 61 873.3 61 853 61C832.7 61 812.3 61 792 61C771.7 61 751.3 61 731 61C710.7 61 690.3 61 670.2 61C650 61 630 61 609.8 61C589.7 61 569.3 61 549 61C528.7 61 508.3 61 488 61C467.7 61 447.3 61 427 61C406.7 61 386.3 61 366 61C345.7 61 325.3 61 305 61C284.7 61 264.3 61 244 61C223.7 61 203.3 61 183 61C162.7 61 142.3 61 122 61C101.7 61 81.3 61 61 61C40.7 61 20.3 61 10.2 61L0 61Z" fill="#576a63"></path><path d="M0 47L10.2 46.5C20.3 46 40.7 45 61 44.2C81.3 43.3 101.7 42.7 122 44.2C142.3 45.7 162.7 49.3 183 49.5C203.3 49.7 223.7 46.3 244 46.2C264.3 46 284.7 49 305 51.3C325.3 53.7 345.7 55.3 366 55.8C386.3 56.3 406.7 55.7 427 55.5C447.3 55.3 467.7 55.7 488 54C508.3 52.3 528.7 48.7 549 45.3C569.3 42 589.7 39 609.8 38.7C630 38.3 650 40.7 670.2 41.3C690.3 42 710.7 41 731 43.3C751.3 45.7 771.7 51.3 792 53C812.3 54.7 832.7 52.3 853 50.7C873.3 49 893.7 48 914 48.3C934.3 48.7 954.7 50.3 975 51.3C995.3 52.3 1015.7 52.7 1036 52.7C1056.3 52.7 1076.7 52.3 1097 50C1117.3 47.7 1137.7 43.3 1158 42C1178.3 40.7 1198.7 42.3 1219 45C1239.3 47.7 1259.7 51.3 1269.8 53.2L1280 55L1280 61L1269.8 61C1259.7 61 1239.3 61 1219 61C1198.7 61 1178.3 61 1158 61C1137.7 61 1117.3 61 1097 61C1076.7 61 1056.3 61 1036 61C1015.7 61 995.3 61 975 61C954.7 61 934.3 61 914 61C893.7 61 873.3 61 853 61C832.7 61 812.3 61 792 61C771.7 61 751.3 61 731 61C710.7 61 690.3 61 670.2 61C650 61 630 61 609.8 61C589.7 61 569.3 61 549 61C528.7 61 508.3 61 488 61C467.7 61 447.3 61 427 61C406.7 61 386.3 61 366 61C345.7 61 325.3 61 305 61C284.7 61 264.3 61 244 61C223.7 61 203.3 61 183 61C162.7 61 142.3 61 122 61C101.7 61 81.3 61 61 61C40.7 61 20.3 61 10.2 61L0 61Z" fill="#7f887e"></path><path d="M0 47L10.2 46.5C20.3 46 40.7 45 61 45.8C81.3 46.7 101.7 49.3 122 51.8C142.3 54.3 162.7 56.7 183 56.8C203.3 57 223.7 55 244 53.8C264.3 52.7 284.7 52.3 305 53.2C325.3 54 345.7 56 366 55.5C386.3 55 406.7 52 427 51.8C447.3 51.7 467.7 54.3 488 55.8C508.3 57.3 528.7 57.7 549 57.8C569.3 58 589.7 58 609.8 56.5C630 55 650 52 670.2 51.8C690.3 51.7 710.7 54.3 731 55.5C751.3 56.7 771.7 56.3 792 55.2C812.3 54 832.7 52 853 50.5C873.3 49 893.7 48 914 48.2C934.3 48.3 954.7 49.7 975 49.3C995.3 49 1015.7 47 1036 48C1056.3 49 1076.7 53 1097 55.3C1117.3 57.7 1137.7 58.3 1158 56.5C1178.3 54.7 1198.7 50.3 1219 48C1239.3 45.7 1259.7 45.3 1269.8 45.2L1280 45L1280 61L1269.8 61C1259.7 61 1239.3 61 1219 61C1198.7 61 1178.3 61 1158 61C1137.7 61 1117.3 61 1097 61C1076.7 61 1056.3 61 1036 61C1015.7 61 995.3 61 975 61C954.7 61 934.3 61 914 61C893.7 61 873.3 61 853 61C832.7 61 812.3 61 792 61C771.7 61 751.3 61 731 61C710.7 61 690.3 61 670.2 61C650 61 630 61 609.8 61C589.7 61 569.3 61 549 61C528.7 61 508.3 61 488 61C467.7 61 447.3 61 427 61C406.7 61 386.3 61 366 61C345.7 61 325.3 61 305 61C284.7 61 264.3 61 244 61C223.7 61 203.3 61 183 61C162.7 61 142.3 61 122 61C101.7 61 81.3 61 61 61C40.7 61 20.3 61 10.2 61L0 61Z" fill="#a8a89e"></path></svg>